<?xml version="1.0" standalone="no"?>
<!DOCTYPE svg PUBLIC "-//W3C//DTD SVG 20010904//EN"
 "http://www.w3.org/TR/2001/REC-SVG-20010904/DTD/svg10.dtd">
<svg version="1.0" xmlns="http://www.w3.org/2000/svg"
 width="512.000000pt" height="512.000000pt" viewBox="0 0 512.000000 512.000000"
 preserveAspectRatio="xMidYMid meet">
<metadata>
Created by potrace 1.14, written by Peter Selinger 2001-2017
</metadata>
<g transform="translate(0.000000,512.000000) scale(0.100000,-0.100000)"
fill="#000000" stroke="none">
<path d="M2325 5089 c-82 -10 -182 -24 -235 -34 -117 -22 -339 -88 -430 -127
-25 -10 -54 -23 -65 -27 -104 -40 -455 -242 -510 -294 -7 -7 -25 -21 -41 -32
-97 -70 -332 -304 -425 -425 -73 -94 -183 -258 -223 -334 -14 -27 -30 -54 -34
-60 -18 -23 -113 -246 -146 -341 -54 -156 -94 -316 -111 -435 -3 -25 -8 -56
-10 -70 -15 -81 -19 -147 -19 -340 -1 -188 4 -270 19 -370 18 -116 26 -159 34
-187 5 -18 8 -33 6 -33 -3 0 0 -11 5 -26 6 -14 12 -37 15 -52 12 -71 96 -303
150 -417 19 -40 35 -76 35 -79 0 -16 178 -307 217 -356 7 -8 32 -41 56 -73 75
-97 174 -204 300 -323 45 -42 145 -124 152 -124 3 0 13 -7 22 -16 21 -21 185
-131 248 -166 256 -145 577 -258 825 -294 19 -2 44 -6 55 -9 98 -20 447 -27
590 -13 447 46 909 230 1254 500 34 28 73 57 84 66 38 30 281 276 312 316 17
21 35 43 41 50 20 22 120 162 144 201 13 22 26 42 29 45 24 21 170 319 212
430 57 152 117 376 134 493 3 27 8 58 10 69 27 138 27 604 0 708 -2 8 -6 38
-10 65 -16 129 -82 373 -138 515 -8 19 -20 51 -27 70 -41 109 -268 506 -309
540 -3 3 -19 23 -36 45 -16 22 -31 42 -34 45 -4 3 -21 23 -40 45 -41 49 -167
179 -212 220 -66 59 -235 192 -274 215 -22 13 -42 27 -45 30 -22 28 -305 175
-443 229 -160 64 -423 133 -552 146 -22 3 -71 8 -110 13 -82 11 -383 11 -470
1z"/>
</g>
</svg>
